<?xml version="1.0" encoding="utf-8"?>
<!-- Generator: Adobe Illustrator 18.0.0, SVG Export Plug-In . SVG Version: 6.00 Build 0)  -->
<!DOCTYPE svg PUBLIC "-//W3C//DTD SVG 1.1//EN" "http://www.w3.org/Graphics/SVG/1.1/DTD/svg11.dtd">
<svg version="1.1" id="Layer_1" xmlns="http://www.w3.org/2000/svg" xmlns:xlink="http://www.w3.org/1999/xlink" x="0px" y="0px"
	 width="512px" height="512px" viewBox="0 0 512 512" enable-background="new 0 0 512 512" xml:space="preserve">
<g>
	<g id="logo">
		<rect id="background" fill="#F7DF1E" width="512" height="512"/>
		<path id="j" d="M134.6,427.9l39.2-23.7c7.6,13.4,14.4,24.7,30.9,24.7c15.8,0,25.8-6.2,25.8-30.2V235.1h48.1v164.3
			c0,49.8-29.2,72.5-71.8,72.5C168.3,471.9,146,451.9,134.6,427.9"/>
		<path id="s" d="M304.8,422.7l39.2-22.7c10.3,16.8,23.7,29.2,47.4,29.2c19.9,0,32.6-10,32.6-23.7c0-16.5-13.1-22.3-35.1-32l-12-5.2
			c-34.7-14.8-57.7-33.3-57.7-72.5c0-36.1,27.5-63.6,70.5-63.6c30.6,0,52.6,10.7,68.4,38.5l-37.5,24.1
			c-8.2-14.8-17.2-20.6-30.9-20.6c-14.1,0-23,8.9-23,20.6c0,14.4,8.9,20.3,29.6,29.2l12,5.2c40.9,17.5,63.9,35.4,63.9,75.6
			c0,43.3-34,67-79.7,67C347.7,471.9,318.9,450.5,304.8,422.7"/>
	</g>
	<g>
		<path d="M42.4,140.4l13.4-7.8c3.5,5.8,8.1,10,16.3,10c6.8,0,11.2-3.4,11.2-8.1c0-5.7-4.5-7.7-12-11l-4.1-1.8
			c-11.9-5.1-19.8-11.4-19.8-24.9c0-12.4,9.4-21.8,24.2-21.8c10.5,0,18,3.7,23.5,13.2l-12.8,8.2c-2.8-5.1-5.9-7.1-10.6-7.1
			c-4.8,0-7.9,3.1-7.9,7.1c0,4.9,3.1,7,10.1,10l4.1,1.8c14,6,21.9,12.1,21.9,25.9c0,14.9-11.7,23-27.3,23
			C57.1,157.3,47.2,150,42.4,140.4z"/>
		<path d="M139.6,75.4h1.4l36.7,80.9h-17.3l-3.8-9.1H124l-3.8,9.1h-15.9L139.6,75.4z M150.7,133.4l-5.8-13.9
			c-2.4-5.7-4.8-14.4-4.8-14.4s-2.4,8.7-4.7,14.4l-5.8,13.9H150.7z"/>
		<path d="M188.9,76.1h16.5v80.2h-16.5V76.1z"/>
		<path d="M219.6,116.2c0-23.7,16.7-41,40.9-41c13.1,0,22.5,3.5,29.1,11.1l-11.2,11.1c-4-4.1-8.6-7.3-17.9-7.3
			c-14.5,0-23.9,11.2-23.9,26.2c0,15,9.7,26.4,26.5,26.4c5.2,0,11.5-0.9,15.7-2.9v-11.8h-19.3v-14.5h34.4V148
			c-4.6,3.8-16.2,9.3-30.8,9.3C237,157.3,219.6,139.8,219.6,116.2z"/>
		<path d="M306.7,116.2c0-23.7,18.4-41.1,41.5-41.1c23.1,0,41.5,17.4,41.5,41.1c0,23.7-18.4,41.1-41.5,41.1
			C325.1,157.3,306.7,139.8,306.7,116.2z M372.8,116.2c0-15-9.9-26.4-24.5-26.4c-14.6,0-24.5,11.4-24.5,26.4
			c0,15,9.9,26.4,24.5,26.4C362.9,142.6,372.8,131.1,372.8,116.2z"/>
		<path d="M427.6,119c-4-3.8-9.6-11-9.6-11s1.2,8.8,1.2,14.6v33.6h-15.4V75.4h1.6l40.4,38c3.9,3.7,9.4,11,9.4,11s-1.1-9.1-1.1-14.6
			V76.1h15.4v80.9H468L427.6,119z"/>
	</g>
</g>
</svg>
